Coordinates
version=1
nRows=7
nColumns=42
inDegrees=yes

Units are S.I. units (second, meters, Newtons, ...)
If the header above contains a line with 'inDegrees', this indicates whether rotational values are in degrees (yes) or radians (no).

endheader
time	pelvis_tilt	pelvis_list	pelvis_rotation	pelvis_tx	pelvis_ty	pelvis_tz	hip_flexion_r	hip_adduction_r	hip_rotation_r	knee_angle_r	knee_adduction_r	knee_angle_r_beta	ankle_angle_r	subtalar_angle_r	mtp_angle_r	hip_flexion_l	hip_adduction_l	hip_rotation_l	knee_angle_l	knee_adduction_l	knee_angle_l_beta	ankle_angle_l	subtalar_angle_l	mtp_angle_l	lumbar_extension	lumbar_bending	lumbar_rotation	arm_flex_r	arm_add_r	arm_rot_r	elbow_flex_r	pro_sup_r	wrist_flex_r	wrist_dev_r	arm_flex_l	arm_add_l	arm_rot_l	elbow_flex_l	pro_sup_l	wrist_flex_l	wrist_dev_l
      2.83000000	      2.28996760	      6.43725402	      5.99184751	      0.08232072	      0.99615487	      0.31327556	      9.00697781	     -6.68913011	    -20.35432627	      9.56565563	      0.51881069	      0.16695219	     -1.39926490	      5.38459578	     -7.51563067	    -13.04572972	      1.27850199	      0.10205735	     24.18021987	      3.76422514	      0.42202445	      1.60575143	      4.20820055	     -7.51563067	    -18.27741225	     -7.31929623	     -9.32683470	    -10.39541192	    -12.57547478	     24.84727378	     38.50437536	     90.00000001	      0.00000000	      0.00000000	     12.87165981	    -22.31777033	     14.40552231	     47.49045948	     90.00000001	      0.00000000	      0.00000000
      2.84000000	      2.46038195	      6.61441106	      6.05193700	      0.08939578	      0.99758941	      0.31459772	      8.03187365	     -6.74086728	    -20.59014864	      9.02913600	      0.68566085	      0.15758815	     -1.02348461	      5.81866114	     -7.51531041	    -12.05577750	      0.93605386	      0.32488780	     26.86494094	      4.34859007	      0.46888167	      0.46066229	      3.50879161	     -7.51531041	    -18.52012208	     -7.49060243	     -9.25890319	     -9.82176653	    -12.63780028	     24.85499253	     38.67708127	     90.00000001	      0.00000000	      0.00000000	     12.37438556	    -22.36495112	     14.42508299	     47.37550903	     90.00000001	      0.00000000	      0.00000000
      2.85000000	      2.62090456	      6.74605215	      6.07258066	      0.09634727	      0.99885033	      0.31602236	      7.11156414	     -6.71738639	    -20.77865871	      8.52056482	      0.81642737	      0.14871191	     -0.72642195	      6.22025117	     -7.51501657	    -10.95579179	      0.52464669	      0.55359828	     29.63200220	      4.98212554	      0.51717600	     -0.52702803	      2.79447388	     -7.51501657	    -18.73696966	     -7.63708080	     -9.11375838	     -9.22775518	    -12.72222403	     24.89456532	     38.87661725	     90.00000001	      0.00000000	      0.00000000	     11.85384882	    -22.41311401	     14.35592562	     47.31493138	     90.00000001	      0.00000000	      0.00000000
      2.86000000	      2.72438471	      6.77466419	      6.06438941	      0.10309752	      0.99986286	      0.31752434	      6.32181972	     -6.55323298	    -20.93328824	      8.05121664	      0.86626392	      0.14052024	     -0.53130874	      6.62200139	     -7.51466354	     -9.67601890	     -0.01015506	      0.77864280	     32.48692061	      5.66600217	      0.56700373	     -1.33107050	      1.97949002	     -7.51466354	    -18.88087435	     -7.69450358	     -8.92173293	     -8.57887885	    -12.85723544	     25.01563777	     39.09854342	     90.00000001	      0.00000000	      0.00000000	     11.27805257	    -22.44478485	     14.15112655	     47.29915529	     90.00000001	      0.00000000	      0.00000000
      2.87000000	      3.04803653	      7.11140742	      5.75497259	      0.10985923	      1.00114164	      0.31931515	      5.43089060	     -6.77844834	    -20.87959869	      7.88898868	      1.03699399	      0.13768883	     -0.25322570	      6.84346517	     -7.51449043	     -8.88518659	     -0.15567166	      1.10785417	     34.71801629	      6.42548104	      0.60594369	     -1.88189478	      1.76868915	     -7.51449043	    -19.27398913	     -8.15264715	     -8.44259509	     -7.91659643	    -12.95520582	     24.99162006	     39.32012091	     90.00000001	      0.00000000	      0.00000000	     10.86525498	    -22.49975927	     13.99571125	     47.24699229	     90.00000001	      0.00000000	      0.00000000
      2.88000000	      2.98963528	      6.87358015	      5.95831283	      0.11626036	      1.00160519	      0.32047495	      4.72346146	     -6.29766493	    -21.05546635	      7.15603220	      1.06028804	      0.12489632	     -0.00764585	      7.23607999	     -7.51416356	     -7.07168258	     -0.96414333	      1.19564446	     37.89661863	      6.84447972	      0.66142077	     -2.50566699	      0.50722585	     -7.51416356	    -19.22931733	     -7.88337237	     -8.38677756	     -7.20445690	    -13.17851162	     25.23197893	     39.55801011	     90.00000001	      0.00000000	      0.00000000	     10.13574175	    -22.49236398	     13.55027093	     47.33039364	     90.00000001	      0.00000000	      0.00000000
      2.89000000	      3.09340269	      6.88982102	      5.86161404	      0.12268796	      1.00226941	      0.32196291	      4.00255775	     -6.13620583	    -21.04408505	      6.75480407	      1.14794251	      0.11789357	      0.27504142	      7.48613151	     -7.51388364	     -5.69123760	     -1.45268443	      1.36323094	     40.39061576	      7.37213011	      0.70494923	     -2.77544603	     -0.24431086	     -7.51388364	    -19.35526257	     -7.96208625	     -8.04983551	     -6.46004320	    -13.37238307	     25.41354842	     39.74913422	     90.00000001	      0.00000000	      0.00000000	      9.53685258	    -22.47886329	     13.10967054	     47.34480113	     90.00000001	      0.00000000	      0.00000000
